<svg width="105" height="104" viewBox="0 0 105 104" fill="none" xmlns="http://www.w3.org/2000/svg">
<path d="M52.5 0C30.9985 0 12.4852 13.0814 4.58594 31.75C4.37016 32.2356 4.25328 32.7593 4.24212 33.2905C4.23097 33.8218 4.32576 34.3499 4.52096 34.8441C4.71617 35.3383 5.00788 35.7887 5.37905 36.1689C5.75023 36.5492 6.19344 36.8516 6.6828 37.0587C7.17216 37.2658 7.69787 37.3732 8.22923 37.3749C8.76059 37.3765 9.28695 37.2723 9.77759 37.0683C10.2682 36.8643 10.7133 36.5646 11.0868 36.1866C11.4604 35.8087 11.7549 35.3602 11.9531 34.8672C18.6299 19.0877 34.2415 8 52.5 8C63.2721 8 73.0931 11.8487 80.7422 18.2578C81.1449 18.5955 81.6101 18.8506 82.1114 19.0084C82.6126 19.1663 83.1401 19.2239 83.6636 19.1779C84.1871 19.1318 84.6964 18.9832 85.1624 18.7403C85.6285 18.4974 86.0421 18.1651 86.3797 17.7624C86.7173 17.3596 86.9722 16.8943 87.13 16.393C87.2877 15.8917 87.3451 15.3643 87.299 14.8408C87.2528 14.3173 87.104 13.808 86.861 13.342C86.6181 12.876 86.2856 12.4625 85.8828 12.125C76.8519 4.55809 65.1839 0 52.5 0ZM52.5 16C48.3037 16 44.2574 16.7178 40.5 18.0469C40.0044 18.2222 39.5482 18.4935 39.1574 18.8452C38.7666 19.1969 38.449 19.6222 38.2225 20.0967C37.9961 20.5711 37.8654 21.0856 37.8378 21.6106C37.8102 22.1356 37.8864 22.6609 38.0618 23.1565C38.2373 23.6521 38.5086 24.1083 38.8604 24.499C39.2122 24.8897 39.6375 25.2073 40.112 25.4336C40.5865 25.6599 41.101 25.7905 41.626 25.818C42.151 25.8455 42.6763 25.7693 43.1719 25.5938C46.0865 24.5628 49.2163 24 52.5 24C68.0099 24 80.5 36.4901 80.5 52C80.5 63.8047 76.5469 90.6797 76.5469 90.6797C76.4466 91.2085 76.4541 91.7521 76.5688 92.278C76.6836 92.8038 76.9033 93.3011 77.2148 93.7401C77.5263 94.179 77.9232 94.5506 78.3817 94.8325C78.8401 95.1145 79.3508 95.301 79.8831 95.381C80.4153 95.4609 80.9583 95.4326 81.4793 95.2978C82.0004 95.163 82.4889 94.9244 82.9156 94.5963C83.3423 94.2682 83.6984 93.8574 83.9626 93.3885C84.2268 92.9196 84.3936 92.4021 84.4531 91.8672C84.4531 91.8672 88.5 65.4914 88.5 52C88.5 32.1659 72.3341 16 52.5 16ZM94.5156 24.8984C93.8223 24.9103 93.144 25.1021 92.5472 25.4551C91.9505 25.8081 91.4557 26.3102 91.1114 26.912C90.7671 27.5139 90.5852 28.1949 90.5835 28.8883C90.5818 29.5817 90.7603 30.2636 91.1016 30.8672C94.5409 37.1409 96.5 44.3257 96.5 52C96.5 56.385 95.8549 60.6018 94.6562 64.5938C94.4829 65.1025 94.4138 65.641 94.4532 66.177C94.4925 66.713 94.6395 67.2356 94.8853 67.7136C95.1311 68.1916 95.4707 68.6151 95.8838 68.9589C96.2969 69.3027 96.7751 69.5598 97.2898 69.7147C97.8044 69.8696 98.345 69.9192 98.8793 69.8606C99.4135 69.8019 99.9305 69.6363 100.399 69.3734C100.868 69.1105 101.279 68.7559 101.608 68.3307C101.937 67.9055 102.176 67.4183 102.312 66.8984C103.73 62.1784 104.5 57.175 104.5 52C104.5 42.9623 102.182 34.4377 98.1172 27.0234C97.7713 26.3715 97.2518 25.8279 96.6162 25.4529C95.9805 25.0778 95.2535 24.886 94.5156 24.8984ZM27.0938 28.2813C26.5127 28.312 25.9453 28.4691 25.4312 28.7417C24.9171 29.0143 24.4687 29.3957 24.1172 29.8594C19.3496 35.9627 16.5 43.6715 16.5 52C16.5 70.8149 13.3828 83.0312 13.3828 83.0312C13.2374 83.5452 13.1963 84.083 13.2621 84.6131C13.3278 85.1431 13.4991 85.6547 13.7657 86.1175C14.0323 86.5803 14.3889 86.985 14.8145 87.3078C15.24 87.6306 15.7259 87.8649 16.2434 87.9969C16.761 88.1289 17.2997 88.1559 17.8279 88.0764C18.356 87.9968 18.8629 87.8123 19.3186 87.5337C19.7743 87.2551 20.1696 86.8881 20.4812 86.4543C20.7928 86.0204 21.0144 85.5286 21.1328 85.0078C21.1328 85.0078 24.5 71.7131 24.5 52C24.5 45.4885 26.7094 39.5339 30.4219 34.7812C30.9053 34.1794 31.2042 33.4504 31.2826 32.6824C31.361 31.9144 31.2156 31.1401 30.8637 30.453C30.5119 29.7658 29.9687 29.1952 29.2998 28.8098C28.6308 28.4244 27.8647 28.2409 27.0938 28.2813ZM52.5 32C41.5019 32 32.5 41.0019 32.5 52C32.5 80.0731 28.6328 94.75 28.6328 94.75C28.4762 95.2653 28.4253 95.8068 28.4831 96.3422C28.5408 96.8776 28.7061 97.3959 28.969 97.8659C29.2318 98.3359 29.5869 98.7479 30.0129 99.0774C30.4388 99.4069 30.9269 99.647 31.4479 99.7833C31.9689 99.9196 32.512 99.9493 33.0448 99.8706C33.5775 99.7919 34.0889 99.6065 34.5482 99.3255C35.0076 99.0444 35.4054 98.6735 35.718 98.235C36.0306 97.7965 36.2514 97.2994 36.3672 96.7734C36.3672 96.7734 40.5 80.823 40.5 52C40.5 45.3261 45.8261 40 52.5 40C59.1739 40 64.5 45.3261 64.5 52C64.5 56.7909 64.2963 61.7916 63.9844 66.6562C63.9464 67.1831 64.013 67.7122 64.1806 68.2132C64.3481 68.7141 64.6132 69.1769 64.9606 69.5749C65.3079 69.9728 65.7307 70.298 66.2043 70.5317C66.678 70.7654 67.1933 70.903 67.7205 70.9366C68.2476 70.9701 68.7762 70.8989 69.2757 70.7271C69.7752 70.5552 70.2357 70.2862 70.6306 69.9355C71.0256 69.5847 71.3472 69.1593 71.5769 68.6836C71.8065 68.2079 71.9397 67.6915 71.9688 67.1641C72.2888 62.1727 72.5 57.0171 72.5 52C72.5 41.0019 63.4981 32 52.5 32ZM4.42188 44.7031C3.43198 44.7502 2.49478 45.163 1.79187 45.8616C1.08895 46.5602 0.670359 47.4948 0.617188 48.4844C0.539124 49.6467 0.5 50.8201 0.5 52C0.5 56.379 1.04799 60.6285 2.07031 64.6875C2.19206 65.2037 2.41526 65.6906 2.72691 66.1198C3.03856 66.549 3.43245 66.9119 3.88565 67.1874C4.33886 67.463 4.84234 67.6457 5.3668 67.7248C5.89125 67.804 6.42622 67.7781 6.94057 67.6486C7.45492 67.5191 7.93838 67.2886 8.36283 66.9705C8.78728 66.6525 9.14424 66.2532 9.41294 65.7959C9.68165 65.3386 9.85673 64.8324 9.92801 64.3068C9.99929 63.7812 9.96533 63.2467 9.82812 62.7344C8.96245 59.2974 8.5 55.709 8.5 52C8.5 50.9959 8.53564 50.0052 8.60156 49.0234C8.64772 48.4564 8.57239 47.886 8.38062 47.3504C8.18885 46.8148 7.88504 46.3262 7.48946 45.9174C7.09389 45.5085 6.61565 45.1887 6.08667 44.9793C5.55769 44.7699 4.99013 44.6758 4.42188 44.7031ZM52.4375 47.9453C51.378 47.9619 50.3684 48.3981 49.6301 49.1583C48.8919 49.9185 48.4855 50.9405 48.5 52C48.5 62.8768 47.913 71.8487 47.1484 78.9219C47.0815 79.4492 47.1204 79.9846 47.2628 80.4968C47.4052 81.009 47.6482 81.4876 47.9777 81.9048C48.3071 82.322 48.7165 82.6693 49.1817 82.9265C49.6469 83.1836 50.1588 83.3455 50.6873 83.4026C51.2158 83.4597 51.7504 83.4109 52.2598 83.2591C52.7692 83.1072 53.2433 82.8553 53.6543 82.5182C54.0653 82.181 54.4049 81.7653 54.6534 81.2954C54.9019 80.8255 55.0543 80.3107 55.1016 79.7812C55.897 72.4224 56.5 63.1633 56.5 52C56.5073 51.4648 56.4072 50.9337 56.2055 50.4379C56.0039 49.9421 55.7048 49.4919 55.326 49.1138C54.9471 48.7357 54.4963 48.4375 54.0002 48.2368C53.504 48.0361 52.9726 47.937 52.4375 47.9453ZM66.3281 80.9375C65.3367 80.9363 64.3803 81.3033 63.6441 81.9673C62.9079 82.6313 62.4445 83.545 62.3438 84.5312C61.4169 92.5399 60.5469 97.9609 60.5469 97.9609C60.4636 98.4801 60.4835 99.0107 60.6053 99.5222C60.7271 100.034 60.9485 100.516 61.2568 100.942C61.5651 101.368 61.9543 101.729 62.4022 102.005C62.8501 102.28 63.3478 102.465 63.867 102.548C64.3862 102.631 64.9167 102.611 65.4282 102.489C65.9397 102.367 66.4222 102.146 66.8481 101.837C67.2739 101.529 67.6349 101.139 67.9103 100.692C68.1857 100.244 68.3701 99.7458 68.4531 99.2266C68.4531 99.2266 69.3517 93.6205 70.2969 85.4531C70.3702 84.8889 70.3222 84.3155 70.1563 83.7712C69.9903 83.227 69.7102 82.7244 69.3346 82.297C68.959 81.8696 68.4965 81.5273 67.9781 81.2928C67.4596 81.0584 66.8971 80.9373 66.3281 80.9375ZM48.6016 91.5156C47.6798 91.5149 46.786 91.8324 46.0714 92.4147C45.3568 92.9969 44.8652 93.808 44.6797 94.7109C44.0696 97.5006 43.6797 98.7266 43.6797 98.7266C43.5205 99.2282 43.4619 99.7563 43.5072 100.281C43.5525 100.805 43.7008 101.315 43.9436 101.782C44.1865 102.249 44.519 102.663 44.9223 103.002C45.3255 103.34 45.7915 103.595 46.2936 103.753C46.7956 103.91 47.3239 103.968 47.8481 103.921C48.3723 103.874 48.8821 103.724 49.3483 103.48C49.8145 103.236 50.228 102.903 50.5651 102.498C50.9021 102.094 51.1561 101.628 51.3125 101.125C51.3125 101.125 51.8303 99.4482 52.4922 96.4219C52.6285 95.8357 52.6307 95.2263 52.4988 94.6391C52.3669 94.0518 52.1041 93.502 51.7302 93.0304C51.3562 92.5588 50.8807 92.1777 50.339 91.9154C49.7973 91.6532 49.2034 91.5165 48.6016 91.5156Z" fill="#102F82"/>
</svg>
