<svg width="40" height="40" viewBox="0 0 40 40" fill="none" xmlns="http://www.w3.org/2000/svg">
<g clip-path="url(#clip0_430_14001)">
<path d="M11 8C11 4.13401 14.134 1 18 1H27.0858L39 12.9142V32C39 35.866 35.866 39 32 39H18C14.134 39 11 35.866 11 32V8Z" fill="white" stroke="#C8D2E1" stroke-width="2"/>
<path d="M27 1V7C27 10.3137 29.6863 13 33 13H39" stroke="#C8D2E1" stroke-width="2" stroke-linecap="round"/>
</g>
<rect y="18" width="26" height="18" rx="4" fill="#FF1607"/>
<path d="M5.82584 30V24.1818H8.12129C8.56258 24.1818 8.93853 24.2661 9.24913 24.4347C9.55974 24.6013 9.79648 24.8333 9.95936 25.1307C10.1241 25.4261 10.2065 25.767 10.2065 26.1534C10.2065 26.5398 10.1232 26.8807 9.95652 27.1761C9.78985 27.4716 9.54838 27.7017 9.23209 27.8665C8.91769 28.0312 8.53701 28.1136 8.09004 28.1136H6.62697V27.1278H7.89118C8.12792 27.1278 8.323 27.0871 8.47641 27.0057C8.63171 26.9223 8.74724 26.8078 8.823 26.6619C8.90065 26.5142 8.93947 26.3447 8.93947 26.1534C8.93947 25.9602 8.90065 25.7917 8.823 25.6477C8.74724 25.5019 8.63171 25.3892 8.47641 25.3097C8.3211 25.2282 8.12413 25.1875 7.8855 25.1875H7.05595V30H5.82584ZM12.908 30H10.8455V24.1818H12.9251C13.5103 24.1818 14.0141 24.2983 14.4364 24.5312C14.8588 24.7623 15.1836 25.0947 15.4109 25.5284C15.64 25.9621 15.7546 26.4811 15.7546 27.0852C15.7546 27.6913 15.64 28.2121 15.4109 28.6477C15.1836 29.0833 14.8569 29.4176 14.4308 29.6506C14.0065 29.8835 13.4989 30 12.908 30ZM12.0756 28.946H12.8569C13.2205 28.946 13.5264 28.8816 13.7745 28.7528C14.0245 28.6222 14.212 28.4205 14.337 28.1477C14.4639 27.8731 14.5273 27.5189 14.5273 27.0852C14.5273 26.6553 14.4639 26.304 14.337 26.0312C14.212 25.7585 14.0254 25.5578 13.7773 25.429C13.5292 25.3002 13.2234 25.2358 12.8597 25.2358H12.0756V28.946ZM16.5058 30V24.1818H20.3581V25.196H17.736V26.5824H20.1024V27.5966H17.736V30H16.5058Z" fill="white"/>
<defs>
<clipPath id="clip0_430_14001">
<rect width="30" height="40" fill="white" transform="translate(10)"/>
</clipPath>
</defs>
</svg>
